<?xml version="1.0" encoding="UTF-8"?>
<svg xmlns="http://www.w3.org/2000/svg" version="1.1" xmlns:serif="http://www.serif.com/" viewBox="0 0 456 456">
  <defs>
    <style>
      .cls-1 {
        display: none;
        fill: #fff;
      }

      .cls-2 {
        fill: #efefef;
      }
    </style>
  </defs>
  <!-- Generator: Adobe Illustrator 28.7.1, SVG Export Plug-In . SVG Version: 1.2.0 Build 142)  -->
  <g>
    <g id="Layer_1">
      <path class="cls-1" d="M105.5,281.6c-2.7,0-5-.9-6.9-2.7-1.9-1.8-2.8-4-2.8-6.6s.9-4.8,2.8-6.7c1.9-1.8,4.2-2.8,6.9-2.8s5.1.9,7,2.8c1.9,1.8,2.9,4.1,2.9,6.7s-1,4.7-2.9,6.6c-1.9,1.8-4.2,2.7-7,2.7Z"/>
      <path class="cls-1" d="M213.6,280.1h-17.6l-46.3-73c-1.2-1.8-2.1-3.8-2.9-5.8h-.4c.4,2.1.5,6.7.5,13.6v65.1h-15.5v-99.4h18.7l44.7,71.3c1.9,3,3.1,5,3.6,6.1h.3c-.5-2.6-.7-7.1-.7-13.4v-64h15.5v99.4Z"/>
      <path class="cls-1" d="M289.3,280.1h-54.4v-99.4h52.2v14h-36.2v28.1h33.3v13.9h-33.3v29.4h38.3v13.9Z"/>
      <path class="cls-1" d="M366.6,194.7h-27.8v85.4h-16.1v-85.4h-27.8v-14h71.7v14Z"/>
      <g>
        <path class="cls-2" d="M222.1,117c0,.3-.2,1.2-.3,2.1-.2,2-1.4,9.5-1.8,11-.3,1.1-.4,1.2-3.8,1.6-2,.2-4.7.5-6.1.5h-2.6s-1.5-3.4-1.5-3.4c-3.9-9.1-4.3-9.9-5.1-9.9s-2.7.5-5.1,1.1c-4,1-4.3,1.2-4.3,2,0,.5.3,3.6.5,6.9.3,3.7.4,6.2.2,6.6-.2.4-2,1.3-4.1,2-2,.7-4.5,1.7-5.5,2.2l-1.8.8-1.6-1.7c-.9-.9-3-3.4-4.7-5.5s-3.3-3.8-3.5-3.8-7.9,4.1-8.4,4.6c0,0,.8,2.9,1.9,6.2,1.1,3.4,2,6.6,2,7.1s-.5,1.3-2,2.2c-1.1.7-3.3,2.3-5,3.6-1.6,1.3-3.1,2.3-3.3,2.3s-1.2-.7-2.4-1.7c-1.1-.9-3.5-2.8-5.3-4.2l-3.3-2.5-3.7,3.7c-2,2-3.7,3.8-3.7,4.1s1.6,2.9,3.5,5.8c2,2.9,3.5,5.5,3.5,5.7s-1.1,1.5-2.4,3c-1.3,1.5-3.1,3.8-4,5.1-1.1,1.6-2,2.5-2.4,2.5-.4,0-3.1-1.1-6-2.4-2.9-1.3-5.5-2.3-5.7-2.2-.5.2-5.4,8.2-5.4,8.8s2,2.2,4.6,4.4c5.4,4.9,5.3,4,1.6,12.2l-2.5,5.6h-2.5c-1.4-.2-4-.6-5.7-1-1.8-.4-3.5-.7-3.8-.7-.5,0-3.4,8.6-3.4,10.1s1.6,1.6,8.3,4.6c1.2.5,2.3,1.2,2.4,1.5.2.5,0,2.8-1.4,10.1l-.9,4.9-2.7.3c-1.5.2-4.2.5-6.1.8l-3.3.5v6.2c-.2,3.5,0,6.4,0,6.6s2.8.6,5.8,1c3,.4,5.7.8,6,1,.2.2.5,1.1.7,2s.7,4.1,1.2,7.1c.5,2.9.9,5.6.7,5.8-.1.2-1,.7-1.9,1.1-.9.4-3.3,1.5-5.4,2.5l-3.8,1.8,1.3,4.6c1.3,4.6,1.9,6.1,2.4,6.1s2.5-.4,5.2-1c2.7-.5,5.3-1,5.8-1,.7,0,1.2.6,2.5,3.4,2.3,4.8,3.9,8.9,3.9,9.9s-1.6,2.2-4.5,4.6c-2.5,2.2-4.5,4.1-4.5,4.4,0,1.1,4.7,8.9,5.5,9,.3,0,2.2-.6,4.1-1.5,1.9-.9,4.2-1.9,5.1-2.2,1.6-.7,9.2-7.7,9.2-8.7s-.5-1.2-1.1-2.2c-6.2-9.7-11-21.7-13.4-33.4-1.8-9-2-11.5-2-20.3s.8-16.4,3.3-26.7c3.1-12.2,10.6-27.2,18.6-37.1,5.8-7.1,16.3-16.8,22.3-20.6,1.5-.9,3.5-2.2,4.3-2.8,2.7-1.9,11.2-6.1,15.9-8,6.4-2.5,12.9-4.3,20.2-5.6,5.8-1,7.1-1.1,16.7-1.1,10.5,0,11,0,20.5,1.8,14.3,2.7,30.6,10.2,42.9,20,4.3,3.4,13.1,12.4,16.6,16.9,10.7,13.9,16.3,26.5,20.5,46.1,1,4.9,1.5,21,.8,27.1-1.7,14.7-6.4,28.7-13.4,40.6-1.5,2.6-2.7,4.9-2.7,5.2,0,.6,7.9,8.5,8.6,8.5s2.6,1,5.3,2.2c3.8,1.8,4.8,2.1,5.1,1.7.2-.3.9-1.5,1.7-2.7,2-3.2,3.3-5.8,3.3-6.4s-2-2.3-4.6-4.4c-4.4-3.8-4.6-4-4.3-5.3.1-.7,1.2-3.4,2.3-5.9,1.2-2.5,2.3-5,2.6-5.6.3-.6.7-1.1,1.1-1.1s2.9.4,5.7,1c2.8.5,5.4.9,5.8.9.6-.1.8-.7,2.8-7.9l.7-2.7-4.6-2.2c-6.4-3-6.3-2.9-6.5-3.5-.1-.3.2-2.4.6-4.8.4-2.3,1-5.5,1.2-7,.5-3.2,0-3,5.4-3.5,1.4-.1,3.7-.4,5-.7l2.4-.4v-6.4c0-3.6-.2-6.5-.4-6.6-.2-.1-1.9-.4-3.8-.6-1.9-.2-4.5-.5-5.8-.7l-2.3-.3-1.1-6.1c-.6-3.3-1.2-6.6-1.3-7.3-.2-.8,0-1.4.4-1.8.3-.3,2.6-1.5,5.2-2.7,2.6-1.1,4.8-2.2,5.1-2.4.3-.2.2-1.5-.7-4.6-1.3-5-1.9-6.4-2.5-6.4s-2.8.5-5.8,1c-2.9.6-5.6.9-5.9.9-.6-.3-5.4-10.8-5.7-12.6-.2-1.3,0-1.5,4.3-5.2,2.5-2.2,4.6-4.2,4.6-4.5,0-.5-4.5-8.6-5.2-9.2,0-.1-2.7.9-5.8,2.4-3.1,1.4-5.8,2.6-6.2,2.6s-1.1-.8-1.8-1.8c-.7-1-2.6-3.4-4.1-5.3-1.6-1.9-2.9-3.6-2.9-3.7s1.5-2.4,3.3-5.1c1.8-2.7,3.5-5.3,3.6-5.7.2-.7-.4-1.5-3.5-4.6l-3.8-3.7-3.1,2.3c-1.7,1.3-4.1,3.2-5.4,4.2-1.3,1-2.5,1.8-2.7,1.7-1.2-.5-10-7.5-10-8,0-.8,1.4-5.4,2.7-9.1.7-1.8,1.1-3.6,1.1-3.8,0-.3-2-1.6-4.2-2.8-3.1-1.8-4.2-2.2-4.7-1.9-.3.2-2.4,2.7-4.6,5.5-2.2,2.7-4.4,5-4.7,5s-1.6-.4-2.8-.9c-1.2-.5-3.6-1.5-5.3-2-1.7-.6-3.2-1.3-3.3-1.6-.1-.3,0-3.5.5-7.2.4-3.7.5-6.9.3-7-.5-.5-8.7-2.4-9.6-2.3-.6,0-1.4,1.6-3.6,6.7l-2.8,6.6h-2.6c-1.4,0-4.2-.3-6.1-.5l-3.5-.5-.3-1.4c-.2-.7-.7-3.6-1.1-6.3-.5-2.7-.9-5.4-1-6l-.2-1.1h-5.7c-4.2,0-5.7.1-5.8.5Z"/>
        <path class="cls-2" d="M191.8,157.5c-1.1.5-2.5,1.5-3,2.2-1.8,2.4-3.3,8.5-3.1,12.7.3,6.6,3.5,21.3,5.7,26.6q.7,1.7-3.3,2.6c-9.5,2.2-15.7,4.1-20.5,6.4-13.7,6.4-17.1,13.9-9.5,21.3,1.3,1.2,2.4,2.2,2.6,2.2s.9.5,1.8,1c4.3,2.9,14.2,6.6,22.8,8.4,2.1.4,4.2.9,4.7,1,1.7.4,2,.8,1.3,2s-.7,1.7-.8,2.4c-.4,1.8-.8,2.4-2.1,2.4-2.2,0-4.2,2.7-3.8,5.2.1.7.8,1.8,1.5,2.6l1.3,1.3-.5,2.8c-1.2,6.2-1.6,11.3-1.1,14.6.9,6,2.2,8.6,5.1,10.3,3.4,2,8,1.3,14.1-2.1,4.3-2.4,8.8-6,15.7-12.9l7.1-7.1,5.2,5.5c4.7,4.9,8,7.9,13.3,12,2,1.5,8.9,5.1,9.9,5.1s1.5.2,2.4.5c2.9.8,6.8-.8,8.6-3.5,4-6.1,3.5-17.2-1.6-34.3-.9-2.9-1.6-5.6-1.6-5.9s.5-.7,1.3-.8c3.4-.5,10.8-2.4,15-3.8l4.7-1.5,1.1.8c.8.6,1.6.8,2.9.8,2.3,0,3.9-1.6,4.2-4,.2-1.2.5-1.9,1.1-2.4,2.1-1.4,5.4-4.9,6.1-6.6,1.3-2.6,1.1-5.8-.3-8-3.2-4.9-10.1-9.1-20.1-12.3-4.4-1.3-6.3-1.9-12.6-3.4-1.7-.4-3.2-.8-3.3-.9s.6-3,1.6-6.4c1.7-6,2.6-9.5,3.5-14.4.2-1.3.5-5,.5-8.2,0-4.9-.1-6.2-.7-7.9-1.8-4.5-3.5-6.2-7-6.9-6-1.3-15.7,4.2-26.4,14.8-2,1.9-4.4,4.6-5.5,5.8-1.1,1.3-2.1,2.3-2.2,2.3s-3.3-3.1-7.1-6.9l-6.8-6.9v-1.7c.3-2-.7-3.7-2.6-4.7-1.5-.7-2.2-.7-3.9.2q-1.4.7-4-.6c-2.9-1.4-6.6-2.5-8.6-2.5s-2.2.4-3.3.9ZM200.1,160.2c.5.1,1.8.6,2.9,1.1,1.9.9,2,.9,2,2.4s.3,1.8,1.3,3c1.2,1.3,1.6,1.5,3.3,1.5s2.4-.2,2.9-.4c1-.3,1.5,0,7.6,6.2,3.6,3.6,6.5,6.8,6.5,7.1s-1.3,2.1-2.8,4c-1.6,1.9-4.2,5.5-5.9,7.9-1.7,2.4-3.3,4.6-3.6,4.7-.3.2-3.5.7-7.1,1-3.7.4-7.8.8-9.2,1-3.8.5-4.6.5-4.8-.3-.1-.4-.2-.8-.2-.9,0-.1-.2-.5-.4-.8-.7-.8-2.7-8.8-3.7-14.3-1-5.8-.9-14.9.2-17.9.8-2.2,3.3-4.9,5.1-5.4,1.2-.4,4.4-.3,6,.1ZM262.2,160.5c.9.4,2.1,1.4,2.8,2.1,1.1,1.3,2.4,4.6,2.4,6.1s.2.8.4,1.1c.5.5.1,9.9-.5,11.9-.1.3-.5,2.5-1,4.9-.8,4.1-3.3,12.9-3.8,13.4s-2,0-4.3-.2c-4.8-.6-14.7-1.6-15.8-1.6-.6,0-1.7-1.3-4.1-4.8-1.8-2.6-4.6-6.4-6.2-8.4-1.6-2-2.9-3.7-2.9-3.9s1.3-1.6,2.9-3.3c1.5-1.6,3.1-3.3,3.4-3.7,1.3-1.4,6.7-6.1,9.5-8.2,3.4-2.6,7.8-4.9,9.9-5.3.8-.2,1.6-.4,1.7-.6.4-.6,3.9-.4,5.5.4ZM229.1,183.8c.6.5,1.1,1.1,1.1,1.2s1.2,1.8,2.7,3.7c2.7,3.4,6.4,8.5,6.4,8.8s-5,.2-11.2.2-11.2,0-11.2-.2c0-.6,10.6-14.5,11-14.5s.7.4,1.3.9ZM241,200.2c.4.4,1.1,1.3,1.5,2.2s1.5,2.6,2.4,4c2.2,3.5,5.3,8.8,5.3,9.2s.7,1.5,1.6,3c1.9,3.1,1.9,3.3-.5,7.4-.9,1.6-2.6,4.4-3.6,6.3s-2.8,4.7-3.9,6.5c-3.5,5.4-2.4,4.8-9.5,5.1-3.4.1-9.1.1-12.6,0l-6.4-.3-1.8-2.6c-1-1.4-2.3-3.6-2.9-4.7-.7-1.2-1.9-3.3-2.7-4.7s-2.4-4.2-3.5-6.2l-1.9-3.7.7-1.2c.4-.7,1.4-2.6,2.3-4.4,1.6-3.1,5.8-10.2,8.4-14.2,1.7-2.6.9-2.4,15.5-2.4,9.5,0,10.9.1,11.6.7ZM212.5,200.6c-.2.3-.9,1.4-1.5,2.5-.6,1.1-1.6,2.8-2.4,3.9-2.2,3.4-4,6.6-5.3,9.3-.7,1.5-1.5,2.7-1.8,2.7s-1.3-1.7-2.2-3.8c-.9-2.1-2-4.7-2.6-5.8-1.5-3.1-2.6-6-2.6-6.8s.6-.8,4.6-1.2c2.5-.3,5.5-.6,6.6-.8,1.1-.2,3.2-.3,4.7-.4,2.1,0,2.6,0,2.3.4ZM254,200.9c3.8.4,7.1,1,7.3,1.2.5.5-2.7,9-4.9,13.4-.9,1.6-1.5,3.2-1.5,3.5,0,1.3-1.1-.2-3.3-4.1-1.3-2.4-3.2-5.8-4.4-7.6-1.1-1.8-2.6-4.2-3.1-5.2l-1.1-1.8h2c1.1,0,5.1.4,8.9.8ZM193.6,205.9c.7,1.9,2.6,6.2,4.2,9.7l2.9,6.2-1.5,3.2c-1.4,3.1-3.6,7.8-4.4,9.5-.2.4-.7,1.9-1.3,3.3s-1.1,2.6-1.5,2.7c-1.2.5-16.7-3.4-18.2-4.6-.3-.2-1.1-.6-1.8-.9-6.8-2.6-12.8-7.2-13.9-10.9-.5-1.5-.4-4.2.3-5.7,1.7-4.1,9-9.1,17.4-11.8,6.3-2,14-4.1,15.5-4.2.9,0,1.1.3,2.3,3.4ZM266.9,202.9c1.3.3,2.5.6,2.7.8.2.2.8.4,1.4.4,1.6,0,14,4.4,17.1,6,3.5,1.9,7,4.7,8.6,6.8,2.2,3.2,1.8,7.7-.9,10.8-2,2.2-2.6,2.4-4.9,1.7-1.6-.5-1.9-.5-3.3,0-1.8.7-3.1,2.6-3.1,4.4s-.2,1.3-1.5,1.8c-2.6,1.1-9.7,3.2-13.1,3.9-1.8.4-3.7.8-4,1-1.2.7-2.5-.2-3.2-2.3-1.3-3.6-2.9-7.4-5.1-12l-2.2-4.7,1.3-2.8c.7-1.6,1.5-3.1,1.8-3.4.2-.3,1.5-3.1,2.7-6.3,2.2-5.6,2.7-6.7,3.3-6.7s1.3.2,2.6.4ZM255.1,224.9c.3.7.9,2.2,1.4,3.3.5,1.1.9,2,.9,2.2,0,.1.5,1.2,1.1,2.4,1.1,2.3,3.1,7.7,3.1,8.4s-3,.9-11,1.8c-4.4.5-7.5.6-7.5.5,0-.2,3-5.3,4.4-7.4.7-1.1,2.6-4.3,4-7.1,1.5-2.8,2.8-5.1,2.9-5.1s.4.6.7,1.3ZM203.2,226.5c.7,1.4,2.1,3.9,3,5.6.9,1.7,1.9,3.4,2.2,3.7.2.3,1.3,1.9,2.3,3.6,1.8,3,2.3,4.4,1.4,4.1-.3,0-1.8-.2-3.5-.4-1.6-.1-4.4-.4-6.3-.6-7.7-.8-7.9-.9-7.9-1.6s1.8-5.4,3.1-8.4c.4-.9,1.5-3.1,2.3-5,.9-1.9,1.6-3.4,1.7-3.4.1,0,.8,1.1,1.6,2.4ZM200.9,244.1c1.7.2,4.5.5,6.1.6,6.8.6,7.5.7,8,1.5.8,1.5,5.7,8.3,8.6,12,1.6,2,3,3.8,3,4,0,.5-7.6,8.3-11.3,11.5-11.1,9.8-20.3,12.3-24.7,6.6-2.4-3.1-3.3-10.6-2.1-18.5.5-3.2.9-4.2,1.8-3.9.3.1,1.2-.5,2.1-1.3,1.5-1.4,1.6-1.6,1.6-3.5s-.2-2.2-1.2-3.4c-.9-1.1-1.1-1.6-.9-2.3.2-.5.4-1,.4-1.1,0-.1.3-.7.5-1.3.3-.6.5-1.3.5-1.5s.7-.3,2.3-.2c1.2.2,3.7.4,5.4.6ZM263.3,245.1c1.5,4.9,2.7,10,3.5,14.4.4,2.7.9,5.1,1.1,5.3.4.5.3,8.7-.1,9-.2.2-.4.5-.4.9,0,.4,0,.9-.1,1.3s-.5,1.4-.9,2.4c-1.3,3.7-3.9,5.3-8.3,5-6.4-.4-13.7-5.1-23.8-15.3-2.3-2.4-4.4-4.7-4.7-5.3-.5-.9-.4-1.1.7-2,.7-.6,1.3-1.2,1.3-1.4s.9-1.5,2.1-2.9c1.2-1.4,3.4-4.5,5-6.8,1.9-2.7,3.2-4.2,3.6-4.2,1.6,0,17.4-1.6,17.5-1.8s.8-.2,1.6,0c1.2.1,1.4.3,1.8,1.7ZM239.2,245.8c0,.4-3,4.7-6.9,9.7-3.1,4-4.4,5.4-4.6,5.1,0,0-1.3-1.6-2.7-3.3-2.3-2.8-7.7-10.4-8-11.4-.1-.3,3.7-.4,11-.4s11.2.2,11.2.3Z"/>
        <path class="cls-2" d="M225.1,209.9c-2.3.5-3.8,1.4-5.7,3.3-2.9,3-4.1,6.7-3.4,10.6.7,4,3.4,7.5,7,9.1,2.6,1.1,7.4,1.1,9.8,0,2.5-1.2,4.9-3.6,6.1-6.2.9-1.9,1.1-2.5.9-5.2,0-2.2-.4-3.6-1.1-4.9-2.4-5-8.2-7.7-13.7-6.6Z"/>
        <path class="cls-2" d="M219.6,286.7c-2.9,1.5-3.6,5.6-1.4,7.5.9.8,1.4.9,3.2.7,1.8-.2,2.1,0,2.1.5,0,1.7-3.1,5.8-4.4,5.8s-.4.2-.4.4c0,.9,3-.9,4.8-2.7,2.7-2.9,3.8-7,2.5-10-1.1-2.5-4.1-3.5-6.5-2.3ZM222.7,287.5c1.5,1.7,1.3,5.8-.4,6.5-.9.4-1.1.3-1.9-.7-.5-.6-.8-1.2-.7-1.3,0-.1,0-.5-.2-.9-.2-.4-.2-1.2.2-2.1.7-2.2,2-2.8,3.1-1.5Z"/>
        <path class="cls-2" d="M231.3,286.7c-2.8,1.5-3.6,5.6-1.3,7.5.9.8,1.4.9,3.2.8,1.3,0,2.2,0,2.3.3.2.7-2.4,4.7-3.7,5.5-1.7,1.1-1.6,1.5.2.7,1.9-.8,4.2-3,5.1-5.1,1-2.1,1.3-5.5.7-7.2-.9-2.6-4-3.8-6.6-2.5ZM234.9,287.5c.9.9,1,5.3,0,6.2-.8.9-1.8.8-2.7-.2-1.1-1.2-1.1-5.3,0-6.1,1-.7,1.8-.7,2.7.1Z"/>
        <path class="cls-2" d="M243.7,286.5c-1.1.4-3.5,2.7-3.1,3.1,0,.1.7-.3,1.4-.9,1.6-1.3,2.9-1.3,4.1,0,2.2,2.4.7,6-4.2,10.8l-2.3,2.3h3.9c2.2,0,4.2.1,4.5.2.4.1.8-.3,1.2-1.5.7-1.8.7-2.3-.2-1.3-.4.4-1.3.6-3.5.6h-2.9l2.7-2.7c3.3-3.2,4.4-5.5,3.8-7.8-.6-2.3-3-3.6-5.5-2.9Z"/>
        <path class="cls-2" d="M208.1,287.9c-2.4,1.3-2.4,1.4-1.1,1.2.8,0,1.6,0,1.9.3s.4,2.4.4,5.8c0,5.7,0,6-2,6.4-.5,0,.8.2,2.9.2,2.2,0,3.4,0,2.7-.2l-1.2-.2v-7.4c-.2-5.5-.4-7.3-.7-7.3-.2,0-1.6.7-3,1.4Z"/>
        <path class="cls-2" d="M152.5,293c-4.4,5-6.8,7.7-6.7,7.9,0,0,5.1.2,11.1.3,12.4.2,19.2.9,27.6,3.1,15.3,3.8,26.1,9.5,35.1,18.3,2.5,2.6,4.6,4.5,4.6,4.4,0-.5-2.5-4.6-4.4-7.3-9.1-13-23.6-22.4-40.7-26.5-6.6-1.6-15.7-2.8-22.1-2.8h-2.2l-2.4,2.6Z"/>
        <path class="cls-2" d="M293.1,290.7c-4.6.3-11.4,1.3-16.2,2.5-17,4.2-30.9,13.1-40.4,25.9-2.2,3.1-4.9,7.4-4.9,8s.9-.7,2-2c8.3-9.3,20.1-16.1,34.2-20,10.9-2.9,22-4.2,34.5-4,4.2,0,7.7,0,7.7,0s-2-2.6-4.6-5.4l-4.6-5.2h-2.8c-1.5.1-3.8.2-5.1.3Z"/>
        <path class="cls-2" d="M144.7,305.7c-3,.4-6,.9-6.5,1.1-.9.4-1.6,1.4-4.6,6.9-1.9,3.6-2.8,5.1-3.2,5.7-.8.9,0,.9,3.6-.3,2-.6,6.1-1.6,9.2-2.2,17.2-2.9,36.2-2,51.1,2.6,12,3.7,20,7.2,30,13.2,1.6,1-4.6-5.3-8-8-6-4.9-11-7.9-20.3-12.2-6.1-2.9-17.5-6-25.9-7-6.3-.8-18.4-.7-25.4.3Z"/>
        <path class="cls-2" d="M285.3,305.5c-4,.5-5,.7-11,2.1-14.2,3.3-26.9,10-38.6,20.4-2.6,2.2-6.5,6.7-4.6,5.1,3-2.4,16.5-9,23.2-11.3,15.3-5.2,23.5-6.6,40-6.5,11,0,20.5,1.3,27.6,3.7,2,.7,3.7,1.2,3.8,1.1s-1.5-3.1-3.5-6.6l-3.6-6.5-1.9-.5c-6.5-1.6-23.2-2.2-31.4-1.1Z"/>
        <path class="cls-2" d="M158.7,320.4c-10.8,1.1-23.7,3.8-31.1,6.6l-2.4.9-1.1,4.3c-.6,2.4-1.2,4.9-1.3,5.8l-.3,1.5,1.5-.6c2.9-1.2,15.4-4.5,21.6-5.7,11.5-2.2,16.2-2.6,32-2.6s15.3.1,21.3.9c8.4,1,18,2.9,23.2,4.4,2.2.6,4,1.1,4.1,1,.2-.3-6.3-4.5-10.3-6.6-13-6.9-28.7-10.6-45.7-10.4-3.6,0-8.7.3-11.4.5Z"/>
        <path class="cls-2" d="M273.5,320.4c-10.5,1.2-20.8,3.9-29.3,7.8-4.5,2.1-14.7,8.3-14.3,8.8,0,0,1.6-.4,3.5-.9,6.2-1.8,16.4-3.8,25.6-4.7,4.8-.5,9.6-.7,19.9-.7,16.4,0,21.8.5,35.9,3.4,2.2.5,4.6,1.1,5.5,1.3,3.5,1.2,12.8,3.8,13,3.7.1,0-.3-2-.8-4.3-1.8-7.7-1.3-6.9-5-8-17.9-5.7-37.9-8-53.9-6.3Z"/>
      </g>
    </g>
  </g>
</svg>