<?xml version="1.0" standalone="no"?>
<!DOCTYPE svg PUBLIC "-//W3C//DTD SVG 20010904//EN"
 "http://www.w3.org/TR/2001/REC-SVG-20010904/DTD/svg10.dtd">
<svg version="1.0" xmlns="http://www.w3.org/2000/svg"
 width="651.000000pt" height="651.000000pt" viewBox="0 0 651.000000 651.000000"
 preserveAspectRatio="xMidYMid meet">

<g transform="translate(0.000000,651.000000) scale(0.100000,-0.100000)"
fill="#1A1A1A" stroke="none">
<path d="M3105 6078 c-2 -7 -6 -31 -8 -53 -5 -51 -36 -241 -46 -280 -7 -29 -9
-30 -96 -42 -50 -6 -120 -12 -156 -12 l-66 -1 -37 88 c-99 231 -109 252 -131
252 -11 0 -69 -13 -130 -29 -101 -26 -110 -31 -110 -52 1 -13 7 -92 14 -175 8
-95 10 -158 4 -168 -5 -9 -52 -32 -104 -50 -52 -19 -114 -43 -139 -55 l-45
-21 -40 43 c-22 24 -76 87 -120 140 -44 53 -84 97 -90 97 -8 0 -202 -104 -214
-116 -2 -1 20 -73 48 -158 28 -86 51 -167 51 -180 0 -18 -13 -32 -51 -57 -28
-18 -85 -58 -127 -91 -42 -32 -79 -58 -83 -58 -4 0 -31 19 -61 43 -29 24 -90
71 -136 106 l-83 63 -95 -93 c-51 -51 -94 -98 -94 -105 0 -6 41 -73 90 -147
50 -75 90 -140 90 -145 0 -5 -27 -39 -60 -77 -32 -37 -79 -96 -102 -131 -27
-40 -50 -63 -62 -64 -10 0 -79 27 -153 61 -74 33 -140 59 -146 56 -14 -5 -137
-208 -137 -225 0 -5 52 -56 116 -113 138 -124 135 -103 40 -311 l-64 -143 -63
3 c-35 2 -101 12 -146 23 -46 10 -90 19 -97 19 -12 0 -86 -220 -86 -257 0 -19
40 -41 211 -117 31 -13 59 -31 61 -38 6 -14 -2 -71 -35 -258 l-22 -125 -70 -8
c-39 -5 -108 -14 -155 -20 l-85 -12 -3 -159 c-1 -88 1 -163 5 -167 5 -5 71
-16 148 -25 77 -10 145 -21 152 -26 6 -5 14 -28 18 -51 4 -23 18 -104 31 -180
14 -75 22 -142 18 -148 -3 -6 -25 -19 -48 -29 -22 -10 -84 -38 -137 -63 l-97
-45 34 -117 c34 -118 49 -155 62 -155 4 0 63 11 132 25 69 13 135 25 147 25
18 0 30 -16 63 -87 58 -123 100 -228 100 -251 0 -13 -41 -55 -114 -118 -63
-55 -115 -105 -115 -112 -2 -29 119 -226 141 -230 8 -2 55 16 104 39 49 22
107 48 129 56 42 17 235 197 235 221 0 7 -12 31 -27 55 -159 247 -281 552
-341 852 -46 230 -52 293 -52 516 0 261 20 418 85 679 78 311 269 694 473 945
149 182 414 428 567 524 39 24 88 56 110 71 69 48 285 156 405 203 162 64 329
110 515 143 148 26 180 28 425 28 267 1 279 0 522 -45 364 -68 779 -261 1093
-509 110 -87 335 -315 424 -430 273 -353 416 -676 522 -1175 26 -126 38 -535
20 -691 -44 -374 -162 -732 -341 -1034 -38 -65 -70 -125 -70 -133 0 -16 202
-217 219 -217 7 0 67 -25 134 -56 96 -45 123 -54 129 -43 5 8 24 39 43 69 50
81 85 148 85 162 0 7 -52 58 -116 112 -113 98 -116 101 -110 135 3 18 30 86
59 150 30 64 59 128 65 143 7 16 18 28 27 28 8 0 74 -11 146 -26 72 -14 138
-24 147 -22 15 3 20 18 72 201 l19 69 -117 55 c-163 76 -160 74 -166 89 -3 8
4 62 15 122 11 59 25 140 31 179 12 82 2 76 138 88 36 3 93 11 128 17 l62 11
0 163 c0 92 -4 165 -10 169 -5 3 -49 10 -97 16 -48 5 -115 13 -147 17 l-59 7
-28 155 c-16 85 -31 169 -34 187 -4 20 -1 36 9 45 8 8 67 39 133 68 65 29 123
57 129 62 8 6 4 38 -17 116 -34 127 -48 162 -63 162 -6 0 -72 -12 -148 -26
-75 -15 -142 -24 -150 -22 -16 7 -137 274 -144 320 -6 32 -1 37 110 133 64 55
116 107 116 115 0 12 -115 219 -132 235 -2 3 -69 -24 -147 -60 -79 -36 -149
-65 -157 -65 -7 0 -27 21 -45 46 -17 26 -65 86 -105 134 -41 49 -74 91 -74 94
0 3 38 62 84 131 47 69 88 135 91 146 6 18 -10 38 -88 117 l-96 95 -78 -58
c-43 -32 -104 -81 -137 -108 -32 -26 -64 -46 -70 -44 -31 12 -256 191 -256
203 0 21 35 137 70 233 17 47 29 91 28 98 -2 7 -50 40 -108 72 -80 45 -108 56
-119 48 -7 -6 -60 -69 -118 -139 -57 -70 -111 -128 -120 -128 -8 0 -41 11 -72
24 -31 14 -91 37 -134 52 -44 15 -81 33 -84 41 -3 7 2 90 12 184 9 95 13 175
8 179 -13 12 -222 62 -244 58 -16 -2 -36 -40 -91 -170 l-71 -168 -66 1 c-36 0
-106 6 -156 12 l-89 12 -7 35 c-4 19 -17 91 -29 160 -12 69 -24 137 -26 153
l-6 27 -144 0 c-107 0 -146 -3 -149 -12z"/>
<path d="M2334 5046 c-28 -13 -63 -39 -77 -57 -46 -62 -84 -217 -79 -324 8
-167 89 -543 146 -678 18 -44 18 -44 -83 -67 -243 -57 -399 -105 -521 -162
-349 -164 -435 -355 -243 -542 32 -31 61 -56 65 -56 4 0 24 -12 45 -26 110
-75 361 -167 582 -215 53 -11 107 -23 121 -26 43 -10 50 -21 34 -51 -8 -15
-17 -43 -20 -62 -9 -46 -21 -60 -54 -60 -57 0 -108 -70 -96 -133 3 -19 21 -47
39 -66 l34 -32 -14 -72 c-30 -157 -40 -288 -27 -372 23 -152 56 -218 131 -262
86 -50 205 -32 360 54 110 60 224 154 400 328 l181 180 133 -139 c119 -124
204 -201 338 -305 50 -39 228 -131 253 -131 10 0 38 -5 62 -12 74 -20 173 21
219 90 102 155 89 437 -42 875 -23 75 -41 142 -41 150 0 9 13 17 33 20 87 14
275 61 382 96 l119 38 29 -21 c20 -15 42 -21 74 -20 59 1 100 40 108 103 4 31
12 49 28 60 53 36 137 126 156 167 32 67 29 148 -8 205 -81 125 -258 233 -512
313 -111 34 -160 48 -322 86 -43 10 -81 21 -84 24 -3 3 15 76 40 163 44 153
66 242 90 368 6 33 12 128 12 210 0 125 -3 158 -19 200 -45 114 -90 158 -179
177 -153 32 -401 -107 -672 -377 -50 -49 -113 -116 -140 -147 -28 -32 -53 -58
-57 -58 -3 0 -84 79 -180 176 l-173 176 3 44 c4 50 -21 95 -68 119 -37 19 -57
18 -100 -4 -35 -17 -35 -17 -101 15 -73 36 -169 64 -220 64 -19 0 -57 -11 -85
-24z m212 -69 c12 -3 45 -15 73 -27 49 -22 51 -24 51 -61 0 -31 8 -47 34 -77
31 -33 40 -37 83 -37 26 0 60 4 75 9 26 8 38 -2 193 -157 91 -91 165 -172 165
-180 0 -8 -32 -54 -71 -103 -40 -49 -107 -139 -151 -201 -43 -61 -84 -116 -91
-121 -7 -6 -88 -18 -181 -26 -93 -9 -199 -21 -235 -26 -96 -14 -118 -13 -123
8 -3 9 -4 20 -4 23 1 3 -4 12 -11 20 -17 20 -69 224 -94 364 -26 149 -23 379
5 457 21 55 85 124 130 138 31 9 112 8 152 -3z m1581 -7 c22 -10 54 -35 71
-54 29 -33 62 -117 62 -156 0 -9 5 -21 11 -27 13 -13 3 -253 -14 -303 -3 -8
-14 -64 -25 -125 -20 -104 -83 -329 -96 -342 -4 -4 -52 -1 -109 6 -123 15
-374 40 -403 41 -15 0 -43 33 -104 123 -46 67 -116 163 -157 214 -40 51 -73
95 -73 99 0 4 33 41 73 84 39 42 79 84 87 93 34 36 171 156 241 209 87 66 198
126 252 134 20 4 40 11 43 15 10 16 100 9 141 -11z m-844 -595 c15 -13 27 -27
27 -30 0 -4 31 -46 68 -93 68 -87 162 -216 162 -223 0 -2 -128 -4 -285 -4
-157 0 -285 2 -285 5 1 15 269 369 280 369 3 0 17 -11 33 -24z m304 -417 c10
-9 27 -34 38 -55 11 -21 38 -67 61 -103 55 -88 134 -225 134 -234 0 -4 18 -39
41 -77 48 -80 48 -83 -14 -189 -24 -41 -65 -113 -91 -160 -26 -47 -71 -121
-99 -166 -89 -137 -61 -123 -243 -130 -87 -3 -232 -3 -320 1 l-162 7 -45 67
c-25 36 -58 91 -74 121 -17 30 -48 84 -70 120 -22 36 -62 107 -88 159 l-49 94
18 31 c10 17 36 67 59 111 40 80 148 261 214 361 43 65 24 62 395 60 243 -1
278 -3 295 -18z m-725 -10 c-5 -7 -22 -35 -37 -63 -16 -27 -42 -72 -60 -100
-56 -87 -101 -168 -134 -237 -18 -38 -38 -68 -45 -68 -8 0 -32 43 -56 98 -23
53 -52 120 -65 148 -37 79 -65 153 -65 173 0 16 15 20 118 31 64 7 140 16 167
20 28 4 81 8 119 9 54 1 66 -2 58 -11z m1055 -8 c98 -11 182 -25 187 -30 12
-12 -69 -230 -125 -341 -22 -41 -39 -81 -39 -88 0 -32 -29 5 -83 105 -32 60
-82 147 -112 194 -29 47 -65 106 -79 133 l-27 47 51 0 c27 0 130 -9 227 -20z
m-1537 -127 c19 -49 67 -159 107 -246 l73 -158 -39 -82 c-36 -78 -92 -198
-111 -242 -5 -11 -19 -49 -32 -84 -13 -35 -29 -66 -37 -69 -30 -12 -426 86
-464 116 -7 5 -28 15 -47 22 -174 65 -325 184 -354 278 -12 38 -9 106 7 144
44 105 229 231 442 300 160 52 357 105 396 107 23 1 29 -7 59 -86z m1866 76
c32 -7 63 -16 69 -20 5 -5 21 -9 35 -9 41 0 357 -111 436 -153 90 -48 179
-120 218 -174 56 -81 46 -196 -24 -276 -50 -56 -67 -62 -125 -43 -41 14 -49
14 -85 0 -46 -19 -80 -66 -80 -113 0 -26 -6 -33 -37 -47 -67 -28 -246 -81
-333 -99 -47 -9 -93 -21 -102 -26 -31 -17 -63 6 -82 58 -34 92 -75 189 -131
306 l-56 119 32 71 c18 40 38 79 45 87 6 8 37 80 69 160 56 142 70 170 85 170
3 0 33 -5 66 -11z m-301 -561 c7 -18 23 -55 36 -83 12 -27 23 -52 23 -55 1 -3
13 -30 28 -60 28 -59 78 -196 78 -215 0 -11 -77 -24 -280 -45 -113 -12 -190
-16 -190 -12 0 6 77 135 112 189 18 28 65 110 103 182 39 72 71 131 73 131 2
0 9 -15 17 -32z m-1322 -40 c19 -35 53 -99 77 -143 23 -44 48 -87 55 -95 6 -8
32 -49 58 -91 47 -76 58 -112 35 -104 -7 2 -47 6 -88 10 -41 3 -113 10 -160
15 -195 21 -200 22 -200 41 0 17 45 138 80 214 10 22 37 79 59 128 22 48 42
87 44 87 3 0 21 -28 40 -62z m-58 -448 c44 -6 114 -13 155 -16 174 -15 192
-18 204 -39 21 -39 146 -211 220 -305 42 -52 76 -98 76 -102 0 -12 -194 -211
-287 -294 -282 -250 -518 -314 -628 -169 -62 80 -83 270 -54 472 12 82 24 107
46 99 7 -3 31 12 53 33 37 35 40 42 40 89 0 43 -5 57 -31 86 -24 28 -29 40
-23 58 5 13 9 25 9 28 1 3 7 18 13 33 7 16 12 33 12 39 0 7 19 8 58 4 31 -4
93 -11 137 -16z m1591 -25 c38 -124 70 -255 89 -367 11 -70 24 -130 28 -134
11 -12 8 -222 -3 -229 -6 -4 -10 -14 -9 -23 1 -10 0 -24 -3 -32 -3 -8 -13 -35
-22 -60 -33 -94 -99 -134 -211 -128 -164 9 -350 130 -606 391 -59 60 -113 120
-120 134 -12 23 -11 27 19 51 18 15 32 31 32 36 0 5 24 39 53 75 30 36 87 114
127 174 48 69 81 107 92 107 42 0 442 41 447 46 3 3 21 4 40 2 31 -3 36 -7 47
-43z m-616 -18 c0 -11 -77 -119 -176 -247 -78 -101 -111 -137 -117 -129 -2 2
-33 40 -69 84 -59 72 -195 265 -204 290 -3 7 95 10 281 10 157 0 285 -4 285
-8z"/>
<path d="M3183 3710 c-59 -12 -98 -35 -144 -83 -75 -76 -105 -170 -87 -269 18
-101 87 -190 178 -232 65 -29 188 -29 250 2 63 31 124 92 155 157 24 48 27 64
23 132 -2 56 -10 92 -27 126 -62 127 -208 197 -348 167z"/>
<path d="M3041 1753 c-73 -38 -92 -142 -35 -192 24 -20 36 -23 81 -19 47 4 53
2 53 -14 0 -44 -78 -148 -111 -148 -5 0 -9 -5 -9 -10 0 -22 77 22 122 70 70
75 96 178 64 255 -27 63 -104 90 -165 58z m81 -20 c38 -44 32 -147 -9 -166
-23 -10 -28 -8 -49 18 -13 16 -21 31 -19 33 2 3 0 12 -5 22 -6 10 -4 30 4 54
19 56 50 71 78 39z"/>
<path d="M3340 1753 c-72 -37 -91 -142 -34 -191 23 -20 36 -23 82 -20 32 2 57
-1 59 -7 6 -19 -61 -119 -94 -140 -44 -27 -41 -37 5 -19 49 21 107 77 131 129
25 54 34 141 18 184 -24 67 -103 97 -167 64z m92 -20 c24 -22 26 -134 2 -157
-21 -22 -47 -20 -70 5 -27 30 -27 135 0 155 26 18 45 18 68 -3z"/>
<path d="M3655 1760 c-28 -9 -90 -69 -80 -78 2 -3 18 7 35 22 40 33 74 33 105
0 55 -60 19 -153 -107 -276 l-59 -58 100 0 c55 0 106 -3 114 -6 10 -3 20 8 31
37 18 45 17 59 -4 34 -9 -11 -32 -15 -88 -15 l-75 0 70 69 c83 82 112 140 97
198 -15 59 -77 91 -139 73z"/>
<path d="M2750 1724 c-60 -32 -62 -35 -29 -30 20 2 42 -1 48 -7 7 -7 11 -60
11 -148 0 -145 -2 -153 -50 -162 -14 -2 20 -4 75 -4 55 -1 87 2 70 6 l-30 6
-3 188 c-2 140 -6 187 -15 187 -6 -1 -41 -17 -77 -36z"/>
<path d="M1333 1593 c-113 -128 -172 -197 -170 -200 2 -1 129 -4 283 -7 315
-5 489 -24 704 -78 390 -97 666 -241 893 -467 64 -65 117 -115 117 -113 0 12
-64 118 -112 185 -233 330 -602 570 -1036 676 -169 41 -401 71 -563 71 l-56 0
-60 -67z"/>
<path d="M4915 1653 c-117 -7 -291 -33 -413 -63 -432 -106 -788 -334 -1028
-659 -56 -78 -124 -188 -124 -204 0 -4 23 19 52 50 212 236 512 411 872 509
277 75 560 108 879 102 108 -1 197 -1 197 2 0 3 -52 65 -116 138 l-116 132
-72 -2 c-39 -1 -98 -3 -131 -5z"/>
<path d="M1134 1269 c-77 -10 -152 -23 -166 -28 -24 -9 -42 -36 -118 -175 -49
-92 -72 -131 -82 -144 -20 -24 0 -23 91 8 50 16 156 41 235 55 438 75 921 51
1301 -66 305 -93 509 -183 765 -337 41 -25 -118 134 -204 205 -153 124 -280
201 -517 311 -156 73 -447 152 -659 178 -161 20 -469 17 -646 -7z"/>
<path d="M4715 1274 c-103 -13 -127 -18 -279 -54 -362 -85 -686 -256 -984
-519 -65 -57 -166 -171 -117 -130 76 62 421 229 592 288 391 133 599 167 1018
165 279 -1 521 -34 703 -95 51 -17 95 -30 97 -28 2 2 -38 78 -88 169 l-92 165
-49 12 c-165 41 -591 55 -801 27z"/>
<path d="M1490 895 c-274 -28 -604 -98 -793 -169 l-61 -23 -28 -109 c-15 -60
-30 -126 -33 -147 l-7 -38 38 16 c75 31 392 115 549 144 293 56 412 65 815 65
315 0 389 -3 542 -22 214 -26 458 -73 592 -113 55 -16 101 -27 104 -25 6 7
-160 114 -263 169 -331 177 -732 269 -1165 266 -91 -1 -221 -7 -290 -14z"/>
<path d="M4414 895 c-268 -30 -531 -100 -747 -199 -114 -53 -374 -212 -364
-223 2 -1 42 9 88 23 157 47 417 96 652 121 123 14 245 18 507 18 419 0 555
-13 915 -86 55 -12 118 -27 140 -34 90 -31 326 -97 330 -93 3 2 -7 51 -21 109
-47 197 -33 175 -127 204 -457 145 -965 204 -1373 160z"/>
</g>
</svg>
