<?xml version="1.0" encoding="UTF-8"?>
<svg xmlns="http://www.w3.org/2000/svg" version="1.1" xmlns:serif="http://www.serif.com/" viewBox="0 0 456 456">
  <defs>
    <style>
      .cls-1 {
        display: none;
        fill: #fff;
      }

      .cls-2 {
        fill: #efefef;
      }
    </style>
  </defs>
  <!-- Generator: Adobe Illustrator 28.7.1, SVG Export Plug-In . SVG Version: 1.2.0 Build 142)  -->
  <g>
    <g id="Layer_1">
      <g id="Layer_1-2" data-name="Layer_1">
        <g id="Layer_1-2">
          <path class="cls-1" d="M37,310.5c-4.2,0-7.7-1.4-10.7-4.2s-4.4-6.2-4.4-10.2,1.4-7.4,4.4-10.3c3-2.8,6.5-4.4,10.7-4.4s7.9,1.4,10.8,4.4c3,2.8,4.5,6.3,4.5,10.3s-1.6,7.2-4.5,10.2c-3,2.8-6.5,4.2-10.8,4.2Z"/>
          <path class="cls-1" d="M204,308.2h-27.2l-71.5-112.8c-1.9-2.8-3.3-5.9-4.5-8.9h-.7c.7,3.3.7,10.3.7,21v100.6h-24v-153.6h28.9l69.1,110.2c3,4.6,4.8,7.7,5.6,9.4h.5c-.7-4-1.1-11-1.1-20.7v-98.9h24v153.6l.2.2h0Z"/>
          <path class="cls-1" d="M321,308.2h-84.1v-153.6h80.6v21.6h-55.9v43.4h51.5v21.5h-51.5v45.4h59.2v21.5l.2.2h0Z"/>
          <path class="cls-1" d="M440.5,176.3h-43v132h-24.9v-132h-43v-21.6h110.8v21.6h0Z"/>
          <g>
            <path class="cls-2" d="M217.2,56.9c0,.5-.3,1.9-.5,3.3-.3,3.1-2.1,14.7-2.8,17-.5,1.7-.7,1.9-5.9,2.5-3.1.3-7.2.7-9.4.7h-4l-2.3-5.3c-6-14-6.7-15.3-7.9-15.3s-4.2.7-7.9,1.7c-6.2,1.6-6.7,1.9-6.7,3.1s.5,5.6.7,10.7c.5,5.8.7,9.6.3,10.2-.3.7-3.1,2-6.3,3.1-3.1,1.1-7,2.6-8.5,3.4l-2.8,1.2-2.5-2.6c-1.4-1.4-4.6-5.3-7.2-8.5s-5.1-5.9-5.4-5.9-12.2,6.3-13,7.2c0,0,1.2,4.5,3,9.6,1.7,5.3,3.1,10.2,3.1,11s-.7,2-3.1,3.4c-1.7,1.1-5.1,3.5-7.7,5.6-2.5,2-4.8,3.5-5.1,3.5s-1.9-1.1-3.7-2.6c-1.7-1.4-5.4-4.4-8.2-6.5l-5.1-3.9-5.8,5.8c-3.1,3.1-5.8,5.9-5.8,6.3s2.5,4.5,5.4,8.9c3.1,4.5,5.4,8.5,5.4,8.8s-1.7,2.3-3.7,4.6-4.8,5.9-6.2,7.9c-1.7,2.5-3.1,3.9-3.7,3.9s-4.8-1.7-9.3-3.7c-4.5-2-8.5-3.5-8.8-3.4-.7.3-8.4,12.6-8.4,13.6s3.1,3.4,7.2,6.8c8.4,7.6,8.2,6.2,2.5,18.9l-3.9,8.6h-3.9c-2.1-.3-6.2-.9-8.8-1.6-2.8-.7-5.4-1.1-5.9-1.1-.7,0-5.3,13.3-5.3,15.6s2.5,2.5,12.8,7.2c1.9.7,3.5,1.9,3.7,2.3.3.7,0,4.4-2.1,15.6l-1.4,7.6-4.2.5c-2.3.3-6.5.7-9.4,1.2l-5.1.7v9.6c-.3,5.4,0,9.8,0,10.2s4.4.9,8.9,1.6c4.6.7,8.8,1.2,9.3,1.6.3.3.7,1.7,1.1,3.1s1.1,6.3,1.9,11c.7,4.5,1.4,8.6,1.1,8.9-.2.3-1.6,1.1-3,1.7s-5.1,2.3-8.4,3.9l-5.9,2.8,2,7.2c2,7.2,3,9.4,3.7,9.4s3.9-.7,8.1-1.6c4.2-.7,8.2-1.6,8.9-1.6s1.9.9,3.9,5.3c3.5,7.4,6,13.7,6,15.3s-2.5,3.4-7,7.2c-3.9,3.4-7,6.3-7,6.8,0,1.7,7.2,13.7,8.5,13.9.5,0,3.4-.9,6.3-2.3,3-1.4,6.5-3,7.9-3.4,2.5-1.1,14.2-11.9,14.2-13.5s-.7-1.9-1.7-3.4c-9.6-15-17-33.5-20.7-51.6-2.8-13.9-3.1-17.7-3.1-31.4s1.2-25.4,5.1-41.2c4.8-18.9,16.3-42.1,28.7-57.3,8.9-11,25.2-25.9,34.5-31.9,2.3-1.4,5.4-3.4,6.7-4.4,4.2-3,17.3-9.4,24.6-12.4,9.8-3.9,20-6.7,31.2-8.6,8.9-1.6,11-1.7,25.8-1.7s17,0,31.7,2.8c22.1,4.2,47.3,15.8,66.3,30.9,6.7,5.3,20.2,19.1,25.6,26.1,16.5,21.5,25.2,41,31.7,71.2,1.6,7.6,2.3,32.4,1.2,41.9-2.6,22.8-9.8,44.3-20.7,62.7-2.3,4-4.2,7.6-4.2,8.1,0,.9,12.2,13.1,13.3,13.1s4,1.6,8.2,3.4c5.9,2.8,7.4,3.3,7.9,2.6.3-.5,1.4-2.3,2.6-4.2,3.1-4.9,5.1-8.9,5.1-9.8s-3.1-3.5-7.2-6.8c-6.8-5.9-7.2-6.2-6.7-8.2.2-1.1,1.9-5.3,3.5-9.1,1.9-3.9,3.5-7.7,4-8.6s1.1-1.7,1.7-1.7,4.5.7,8.8,1.6c4.4.7,8.4,1.4,8.9,1.4.9-.2,1.2-1.1,4.4-12.2l1.1-4.2-7.2-3.4c-9.8-4.6-9.8-4.5-10-5.4-.2-.5.3-3.7.9-7.4.7-3.5,1.6-8.5,1.9-10.8.7-4.9,0-4.6,8.4-5.4,2.1-.2,5.8-.7,7.7-1.1l3.7-.7v-9.8c0-5.6-.3-10-.7-10.2-.3-.2-3-.7-5.9-.9-3-.3-7-.7-8.9-1.1l-3.5-.5-1.7-9.4c-.9-5.1-1.9-10.2-2-11.2-.3-1.2,0-2.1.7-2.8.5-.5,4-2.3,8.1-4.2,4-1.7,7.4-3.4,7.9-3.7s.3-2.3-1.1-7.2c-2-7.7-3-9.8-3.9-9.8s-4.4.7-8.9,1.6c-4.5.9-8.6,1.4-9.1,1.4-.9-.5-8.4-16.7-8.8-19.5-.3-2,0-2.3,6.7-8.1,3.9-3.4,7.2-6.5,7.2-7,0-.7-7-13.3-8.1-14.2,0-.2-4.2,1.4-8.9,3.7-4.8,2.1-8.9,4-9.6,4s-1.7-1.2-2.8-2.8-4-5.3-6.3-8.2c-2.5-3-4.5-5.6-4.5-5.8s2.3-3.7,5.1-7.9,5.4-8.2,5.6-8.8c.3-1.1-.7-2.3-5.4-7.2l-5.9-5.8-4.8,3.5c-2.6,2-6.3,4.9-8.4,6.5s-3.9,2.8-4.2,2.6c-1.9-.7-15.4-11.6-15.4-12.4,0-1.2,2.1-8.4,4.2-14,1.1-2.8,1.7-5.6,1.7-5.9,0-.5-3.1-2.5-6.5-4.4-4.8-2.8-6.5-3.4-7.2-3-.5.3-3.7,4.2-7.2,8.5-3.4,4.2-6.8,7.7-7.2,7.7s-2.5-.7-4.4-1.4-5.6-2.3-8.2-3.1c-2.6-.9-4.9-2-5.1-2.5s0-5.4.7-11.1c.7-5.8.7-10.7.5-10.8-.7-.7-13.5-3.7-14.9-3.5-.9,0-2.1,2.5-5.6,10.3l-4.4,10.2h-4c-2.1,0-6.5-.5-9.4-.7l-5.4-.7-.5-2.1c-.3-1.1-1.1-5.6-1.7-9.8-.7-4.2-1.4-8.4-1.6-9.3l-.3-1.7h-8.8c-6.5,0-8.8.2-8.9.7h.5v.2Z"/>
            <path class="cls-2" d="M170.4,119.5c-1.7.7-3.9,2.3-4.6,3.4-2.8,3.7-5.1,13.1-4.8,19.6.5,10.2,5.4,32.9,8.8,41.1.7,1.8-1,3.1-5.1,4-14.7,3.4-24.2,6.3-31.7,9.8-21.2,9.8-26.4,21.5-14.7,32.9,2,1.9,3.7,3.4,4,3.4s1.4.7,2.8,1.6c6.7,4.5,21.9,10.2,35.2,13,3.3.7,6.5,1.4,7.2,1.6,2.6.7,3.1,1.2,2,3.1s-1.1,2.6-1.2,3.7c-.7,2.8-1.2,3.7-3.3,3.7-3.4,0-6.5,4.2-5.9,8.1.2,1.1,1.2,2.8,2.3,4l2,2-.7,4.4c-1.9,9.6-2.5,17.5-1.7,22.6,1.4,9.3,3.4,13.3,7.9,15.9,5.3,3.1,12.4,2,21.8-3.3,6.7-3.7,13.6-9.3,24.2-20l11-11,8.1,8.5c7.2,7.6,12.4,12.2,20.5,18.6,3.1,2.3,13.7,7.9,15.3,7.9s2.3.3,3.7.7c4.5,1.2,10.5-1.2,13.3-5.4,6.2-9.4,5.4-26.6-2.5-53-1.4-4.5-2.5-8.6-2.5-9.1s.7-1.1,2-1.2c5.3-.7,16.7-3.7,23.2-5.9l7.2-2.3,1.7,1.2c1.2.9,2.5,1.2,4.5,1.2,3.5,0,6-2.5,6.5-6.2.3-1.9.7-3,1.7-3.7,3.3-2.1,8.4-7.6,9.4-10.2,2-4,1.7-8.9-.5-12.4-4.9-7.6-15.6-14-31-19-6.8-2-9.8-3-19.5-5.3-2.6-.7-4.9-1.2-5.1-1.4s.9-4.6,2.5-9.8c2.6-9.3,4-14.7,5.4-22.3.3-2,.7-7.7.7-12.6,0-7.6-.2-9.6-1.1-12.2-2.8-7-5.4-9.6-10.8-10.7-9.3-2-24.2,6.5-40.8,22.9-3.1,3-6.8,7.2-8.5,8.9-1.7,2-3.3,3.5-3.4,3.5s-5.1-4.8-11-10.7l-10.5-10.7v-2.6c.5-3.1-1.1-5.8-4-7.2-2.3-1.1-3.4-1.1-6,.3-1.5.7-3.5.4-6.2-.9-4.5-2.1-10.2-3.9-13.3-3.9s-3.4.7-5.1,1.4l.3-.2h0ZM183.2,123.7c.7.2,2.8.9,4.5,1.7,3,1.4,3.1,1.4,3.1,3.7s.5,2.8,2,4.6c1.9,2,2.5,2.3,5.1,2.3s3.7-.3,4.5-.7c1.6-.5,2.3,0,11.7,9.6,5.6,5.6,10,10.5,10,11s-2,3.3-4.4,6.2c-2.5,3-6.5,8.5-9.1,12.2-2.6,3.7-5.1,7.2-5.6,7.2-.5.3-5.4,1.1-11,1.6-5.8.7-12.1,1.2-14.2,1.6-5.9.7-7.2.7-7.4-.5-.2-.7-.3-1.2-.3-1.4s-.3-.7-.7-1.2c-1.1-1.2-4.2-13.6-5.8-22.1-1.6-8.9-1.4-23,.3-27.7,1.2-3.4,5.1-7.6,7.9-8.4,1.9-.7,6.8-.5,9.3.2h-.2.2ZM279.1,124.2c1.4.7,3.3,2.1,4.4,3.3,1.7,2,3.7,7.2,3.7,9.4s.3,1.2.7,1.7c.7.7.2,15.3-.7,18.4-.2.5-.7,3.9-1.6,7.6-1.2,6.3-5.1,20-5.9,20.7s-3.1,0-6.7-.3c-7.4-.9-22.8-2.5-24.4-2.5s-2.6-2-6.3-7.4c-2.8-4-7.2-9.8-9.6-13-2.5-3.1-4.5-5.8-4.5-6s2-2.5,4.5-5.1c2.3-2.5,4.8-5.1,5.3-5.8,2-2.1,10.3-9.4,14.7-12.6,5.3-4,12.1-7.6,15.3-8.2,1.2-.3,2.5-.7,2.6-.9.7-.9,6-.7,8.5.7l.2.2h-.2ZM227.9,160.2c.9.7,1.7,1.7,1.7,1.9s1.9,2.8,4.2,5.8c4.2,5.3,9.8,13.1,9.8,13.6s-7.7.3-17.3.3-17.3,0-17.3-.3c0-.9,16.3-22.4,17-22.4s1.1.7,2,1.4l-.2-.2ZM246.3,185.5c.7.7,1.7,2,2.3,3.4s2.3,4,3.7,6.2c3.4,5.4,8.2,13.6,8.2,14.2s1.1,2.3,2.5,4.6c3,4.8,3,5.1-.7,11.4-1.4,2.5-4,6.8-5.6,9.8s-4.4,7.2-6,10c-5.4,8.4-3.7,7.4-14.7,7.9-5.3.2-14,.2-19.5,0l-9.8-.5-2.8-4c-1.6-2.1-3.5-5.6-4.5-7.2-1.1-1.9-3-5.1-4.2-7.2s-3.7-6.5-5.4-9.6l-3-5.8,1.1-1.9c.7-1.1,2.1-4,3.5-6.8,2.5-4.8,8.9-15.8,13-21.9,2.6-4,1.4-3.7,24-3.7s16.8.2,17.9,1.1h0v-.2ZM202.5,186.1c-.3.5-1.4,2.1-2.3,3.9s-2.5,4.4-3.7,6c-3.4,5.3-6.2,10.2-8.2,14.4-1.1,2.3-2.3,4.2-2.8,4.2s-2-2.6-3.4-5.9-3.1-7.2-4-8.9c-2.3-4.8-4-9.3-4-10.5s.9-1.2,7.2-1.9c3.9-.5,8.5-.9,10.2-1.2s4.9-.5,7.2-.7c3.3,0,4,0,3.5.7h.3v-.2ZM266.4,186.6c5.9.7,11,1.6,11.2,1.9.7.7-4.2,13.9-7.6,20.7-1.4,2.5-2.3,4.9-2.3,5.4,0,2-1.7-.3-5.1-6.3-2-3.7-4.9-8.9-6.8-11.7-1.7-2.8-4-6.5-4.8-8.1l-1.7-2.8h3.1c1.7,0,7.9.7,13.7,1.2l.2-.3h0ZM173.1,194.3c1.1,3,4,9.6,6.5,15l4.5,9.6-2.3,4.9c-2.1,4.8-5.6,12.1-6.8,14.7-.3.7-1.1,3-2,5.1s-1.7,4-2.3,4.2c-1.9.7-25.8-5.3-28.1-7.2-.5-.3-1.7-.9-2.8-1.4-10.5-4-19.8-11.1-21.5-16.8-.7-2.3-.7-6.5.5-8.8,2.6-6.3,13.9-14,26.8-18.2,9.8-3.1,21.6-6.3,24-6.5,1.4,0,1.7.5,3.5,5.3v.2h0ZM286.4,189.7c2,.5,3.9.9,4.2,1.2s1.2.7,2.1.7c2.5,0,21.6,6.8,26.4,9.3,5.4,3,10.8,7.2,13.3,10.5,3.4,4.9,2.8,11.9-1.4,16.7-3.1,3.4-4,3.7-7.6,2.6-2.5-.7-3-.7-5.1,0-2.8,1.1-4.8,4-4.8,6.8s-.3,2-2.3,2.8c-4,1.7-15,4.9-20.2,6-2.8.7-5.8,1.2-6.2,1.6-1.9,1.1-3.9-.3-4.9-3.5-2-5.6-4.5-11.4-7.9-18.6l-3.4-7.2,2-4.4c1.1-2.5,2.3-4.8,2.8-5.3.3-.5,2.3-4.8,4.2-9.8,3.4-8.6,4.2-10.3,5.1-10.3s2,.3,4,.7l-.3.3h.2ZM268.2,223.7c.5,1.1,1.4,3.4,2.1,5.1s1.4,3.1,1.4,3.4.7,1.9,1.7,3.7c1.7,3.5,4.8,11.9,4.8,13s-4.6,1.4-17,2.8c-6.8.7-11.6.9-11.6.7,0-.3,4.6-8.2,6.8-11.4,1.1-1.7,4-6.7,6.2-11,2.3-4.4,4.4-7.9,4.5-7.9s.7.9,1.1,2v-.5h0ZM187.9,226.2c1.1,2.1,3.3,6,4.6,8.6s3,5.3,3.4,5.8c.3.5,2,3,3.5,5.6,2.8,4.6,3.5,6.8,2.1,6.3-.5,0-2.8-.3-5.4-.7-2.5-.2-6.8-.7-9.8-.9-11.9-1.2-12.2-1.4-12.2-2.5s2.8-8.4,4.8-13c.7-1.4,2.3-4.8,3.5-7.7,1.4-3,2.5-5.3,2.6-5.3s1.2,1.7,2.5,3.7h.2,0ZM184.4,253.4c2.6.3,7,.7,9.4.9,10.5.9,11.6,1.1,12.4,2.3,1.2,2.3,8.8,12.8,13.3,18.6,2.5,3.1,4.6,5.9,4.6,6.2,0,.7-11.7,12.8-17.5,17.7-17.2,15.1-31.4,19-38.2,10.2-3.7-4.8-5.1-16.3-3.3-28.6.7-4.9,1.4-6.5,2.8-6s1.9-.7,3.3-2c2.3-2.1,2.5-2.5,2.5-5.4s-.3-3.4-1.9-5.3c-1.4-1.7-1.7-2.5-1.4-3.5.3-.7.7-1.6.7-1.7s.5-1.1.7-2c.5-.9.7-2,.7-2.3s1.1-.5,3.5-.3c1.9.3,5.8.7,8.4.9l-.2.3h0ZM280.8,254.9c2.3,7.6,4.2,15.4,5.4,22.3.7,4.2,1.4,7.9,1.7,8.2.7.7.5,13.5-.2,13.9-.3.3-.7.7-.7,1.4s0,1.4-.2,2-.7,2.1-1.4,3.7c-2,5.8-6,8.2-12.8,7.7-9.8-.7-21.2-7.9-36.8-23.7-3.5-3.7-6.8-7.2-7.2-8.2-.7-1.4-.7-1.7,1.1-3.1,1.1-.9,2-1.9,2-2.1s1.4-2.3,3.3-4.5,5.3-7,7.7-10.5c3-4.2,4.9-6.5,5.6-6.5,2.5,0,26.8-2.5,27-2.8s1.2-.3,2.5,0c1.9.2,2.1.5,2.8,2.6l.2-.5h0ZM243.6,256c0,.7-4.6,7.2-10.7,15-4.8,6.2-6.8,8.4-7.2,7.9,0,0-2-2.5-4.2-5.1-3.5-4.4-11.9-16.1-12.4-17.6-.2-.5,5.8-.7,17-.7s17.3.3,17.3.5h0Z"/>
            <path class="cls-2" d="M221.9,200.5c-3.5.7-5.9,2.1-8.8,5.1-4.5,4.6-6.3,10.3-5.3,16.3,1.1,6.2,5.3,11.6,10.8,14,4,1.7,11.4,1.7,15.1,0,3.9-1.9,7.6-5.6,9.4-9.6,1.4-3,1.7-3.9,1.4-8.1,0-3.4-.7-5.6-1.7-7.6-3.7-7.7-12.6-11.9-21.2-10.2l.2-.2v.2Z"/>
            <path class="cls-2" d="M213.3,319.2c-4.5,2.3-5.6,8.6-2.1,11.6,1.4,1.2,2.1,1.4,4.9,1.1s3.3,0,3.3.7c0,2.6-4.8,8.9-6.8,8.9s-.7.3-.7.7c0,1.4,4.6-1.4,7.4-4.2,4.2-4.5,5.9-10.8,3.9-15.4-1.7-3.9-6.3-5.4-10-3.5l.2.2h0ZM218.2,320.5c2.3,2.6,2,8.9-.7,10-1.4.7-1.7.5-3-1.1-.7-.9-1.2-1.9-1.1-2,0-.2,0-.7-.3-1.4s-.3-1.9.3-3.3c1.1-3.4,3.1-4.4,4.8-2.3h-.2,0Z"/>
            <path class="cls-2" d="M231.4,319.2c-4.4,2.3-5.6,8.6-2,11.6,1.4,1.2,2.1,1.4,4.9,1.2,2,0,3.4,0,3.5.5.3,1.1-3.7,7.2-5.8,8.5-2.6,1.7-2.5,2.3.3,1.1,3-1.2,6.5-4.6,7.9-7.9,1.6-3.3,2-8.5,1.1-11.1-1.4-4-6.2-5.9-10.2-3.9h.3ZM237,320.5c1.4,1.4,1.6,8.2,0,9.6-1.2,1.4-2.8,1.2-4.2-.3-1.7-1.9-1.7-8.2,0-9.4,1.6-1.1,2.8-1.1,4.2.2h0Z"/>
            <path class="cls-2" d="M250.5,318.9c-1.7.7-5.4,4.2-4.8,4.8,0,.2,1.1-.5,2.1-1.4,2.5-2,4.5-2,6.3,0,3.4,3.7,1.1,9.3-6.5,16.7l-3.5,3.5h6c3.4,0,6.5.2,7,.3.7.2,1.2-.5,1.9-2.3,1.1-2.8,1.1-3.5-.3-2-.7.7-2,.9-5.4.9h-4.5l4.2-4.2c5.1-4.9,6.8-8.5,5.9-12.1s-4.6-5.6-8.5-4.5l.2.2Z"/>
            <path class="cls-2" d="M195.6,321.1c-3.7,2-3.7,2.1-1.7,1.9,1.2,0,2.5,0,3,.5s.7,3.7.7,8.9c0,8.8,0,9.3-3.1,9.8-.7,0,1.2.3,4.5.3s5.3,0,4.2-.3l-1.9-.3v-11.4c-.3-8.5-.7-11.2-1.1-11.2s-2.5,1.1-4.6,2.1l.2-.3h0Z"/>
            <path class="cls-2" d="M109.6,328.9c-6.8,7.7-10.5,11.9-10.3,12.2,0,0,7.9.3,17.2.5,19.1.3,29.6,1.4,42.6,4.8,23.7,5.9,40.3,14.7,54.2,28.2,3.9,4,7.2,7,7.2,6.8,0-.7-3.9-7.2-6.8-11.2-14-20.1-36.5-34.6-62.9-41-10.2-2.5-24.2-4.4-34.2-4.4h-3.4l-3.7,4h.2,0Z"/>
            <path class="cls-2" d="M326.9,325.4c-7.2.5-17.6,2-25.1,3.9-26.3,6.5-47.7,20.2-62.4,40-3.4,4.8-7.6,11.4-7.6,12.4s1.4-1.1,3.1-3.1c12.8-14.4,31-24.9,52.9-30.9,16.8-4.5,34-6.5,53.3-6.2h11.9s-3.1-4-7.2-8.4l-7.2-8.1h-4.4c-2.3.2-5.9.3-7.9.5l.3-.2h.3Z"/>
            <path class="cls-2" d="M97.5,348.6c-4.6.7-9.3,1.4-10,1.7-1.4.7-2.5,2.1-7.2,10.7-3,5.6-4.4,7.9-4.9,8.8-1.2,1.4,0,1.4,5.6-.5,3.1-.9,9.4-2.5,14.2-3.4,26.6-4.5,55.9-3.1,79,4,18.6,5.8,30.9,11.1,46.4,20.4,2.5,1.6-7.2-8.2-12.4-12.4-9.3-7.6-17-12.2-31.4-18.9-9.4-4.5-27-9.3-40-10.8-9.8-1.2-28.4-1.1-39.3.5v-.2h0Z"/>
            <path class="cls-2" d="M314.8,348.2c-6.2.7-7.7,1.1-17,3.3-21.9,5.1-41.6,15.4-59.6,31.5-4,3.4-10,10.3-7.2,7.9,4.6-3.7,25.5-13.9,35.9-17.5,23.7-8.1,36.3-10.2,61.8-10,17,0,31.7,2,42.6,5.8,3.1,1.1,5.8,1.9,5.9,1.7s-2.3-4.8-5.4-10.2l-5.6-10-3-.7c-10-2.5-35.9-3.4-48.5-1.7v.2h0Z"/>
            <path class="cls-2" d="M119.2,371.3c-16.7,1.7-36.6,5.9-48,10.2l-3.7,1.4-1.7,6.7c-.9,3.7-1.9,7.6-2,8.9l-.5,2.3,2.3-.9c4.5-1.9,23.8-7,33.3-8.8,17.7-3.4,25.1-4,49.4-4s23.7.2,32.9,1.4c13,1.6,27.8,4.5,35.9,6.8,3.4.9,6.2,1.7,6.3,1.6.3-.5-9.8-7-15.9-10.2-20.1-10.7-44.3-16.3-70.6-16.1-5.6,0-13.5.5-17.6.7h-.2,0Z"/>
            <path class="cls-2" d="M296.6,371.3c-16.3,1.9-32.1,6-45.2,12.1-7,3.3-22.8,12.8-22.1,13.6,0,0,2.5-.7,5.4-1.4,9.6-2.8,25.4-5.9,39.6-7.2,7.4-.7,14.9-1.1,30.7-1.1,25.4,0,33.7.7,55.5,5.3,3.4.7,7.2,1.7,8.5,2,5.4,1.9,19.8,5.9,20.1,5.8.2,0-.5-3.1-1.2-6.7-2.8-11.9-2-10.7-7.7-12.4-27.7-8.8-58.6-12.4-83.3-9.8l-.2-.2h0Z"/>
          </g>
        </g>
      </g>
    </g>
  </g>
</svg>